<svg width="320" height="220" viewBox="0 0 320 220" fill="none" xmlns="http://www.w3.org/2000/svg">
  <g fill="currentColor">
    <path d="M138 36c-6.6 0-12 5.4-12 12 0 2.2.6 4.3 1.7 6.1l6.2 9.9c-11.9 3.7-19.9 10-19.9 18.5V92C93.7 102.4 84 119.5 84 139.3 84 179.7 113.8 206 152 206s68-26.3 68-66.7c0-19.8-9.7-36.9-30-47.3v-9.5c0-8.5-8-14.8-19.9-18.5l6.2-9.9c1.1-1.8 1.7-3.9 1.7-6.1 0-6.6-5.4-12-12-12H138Z" opacity=".92"/>
    <path d="M168.7 117.4c0 6.3-5.3 11.3-13.8 12.4v6.1c0 2.2-1.8 4-4 4s-4-1.8-4-4v-6c-5.9-.7-11.4-3.1-15.7-6.9-1.7-1.4-1.9-3.9-.5-5.6s3.9-1.9 5.6-.5c3.2 2.8 7.2 4.6 11.4 5.2v-11.9c-8-.9-14.9-5.3-14.9-13.7 0-7.2 6.2-12.9 14.9-14v-5.4c0-2.2 1.8-4 4-4s4 1.8 4 4v5.4c4.6.5 9 2.3 12.7 5.3 1.7 1.4 2 3.9.6 5.6-1.4 1.7-3.9 2-5.6.6-2.5-2-5.6-3.3-8.8-3.7v11.7c7.3 1 14.1 4.9 14.1 13.9Zm-26.4-14.6v-10.7c-4 .7-6.7 3-6.7 5.9 0 3 3 4.5 6.7 4.8Zm8 13.1v10.5c4.9-.7 7.8-3.2 7.8-6 0-3.2-3.3-4.5-7.8-4.9Z"/>
    <path d="M215.6 78.8c5.1 2.8 9.4 6.2 12.9 10.3 1.4 1.7 1.2 4.2-.4 5.6-1.7 1.4-4.2 1.2-5.6-.4-3-3.5-6.6-6.4-10.9-8.8-2-.9-3.2-3-2.8-5.2.6-2.5 3-4.1 5.5-3.5.5.1 1 .3 1.3.6Z" opacity=".9"/>
  </g>
</svg>
