<svg width="320" height="220" viewBox="0 0 320 220" fill="none" xmlns="http://www.w3.org/2000/svg">
  <g fill="currentColor" opacity=".95">
    <path d="M77 63c0-12.2 9.9-22 22-22h34c7.2 0 14.1 3.6 18.2 9.6l16.4 23.3c6.8 9.6 19.2 13.3 30.2 8.9l10-4c11.3-4.6 24.2 1 28.8 12.3s-1 24.2-12.3 28.8l-18.5 7.4c-16.5 6.7-35.4 2-46.8-11.7L128.2 82H99c-12.1 0-22-9.8-22-22Z"/>
    <path d="M84.7 99.3C74.8 89.4 74.9 73.4 85 63.3c10.1-10.1 26.1-10.1 36.1 0l16.7 16.7c4.7 4.7 4.7 12.4 0 17.2s-12.4 4.7-17.2 0l-3.7-3.7c-2.7-2.7-7-2.7-9.7 0L94.4 109c-4.7 4.7-12.4 4.7-17.1 0-2.8-2.7-2.8-7 .1-9.7l-.1.1Z"/>
    <path d="M134.4 123.5c-2.8-2.9-2.8-7.5.1-10.4s7.5-2.8 10.4.1l19.3 19.3c10.5 10.5 26.9 12.6 39.8 5l18.5-10.8c3.5-2 8-.8 10 2.7 2 3.5.8 8-2.7 10l-37.8 22.1c-5.6 3.2-12.7 2.3-17.4-2.3l-4.8-4.8-1.2 1.2c-9.9 9.9-25.9 9.9-35.8 0-9.9-10-9.9-26 0-35.9l1.6-1.4-1.8-1.8Z"/>
    <path d="M167.2 165.4c-3.3 3.3-7.7 5.1-12.3 5.1-4.6 0-9-1.8-12.3-5.1l-.4-.4c-3.3-3.3-5.1-7.7-5.1-12.3s1.8-9 5.1-12.3l4.7-4.7c2.1-2.1 5.5-2.1 7.6 0l17.1 17.1c2.1 2.1 2.1 5.5 0 7.6l-4.4 4.9Z" opacity=".9"/>
  </g>
</svg>
