<svg width="320" height="220" viewBox="0 0 320 220" fill="none" xmlns="http://www.w3.org/2000/svg">
  <g fill="currentColor">
    <path d="M112 65c0-17.7 14.3-32 32-32s32 14.3 32 32-14.3 32-32 32-32-14.3-32-32Z" opacity=".95"/>
    <path d="M85 85c0-11 9-20 20-20s20 9 20 20-9 20-20 20-20-9-20-20Zm90 0c0-11 9-20 20-20s20 9 20 20-9 20-20 20-20-9-20-20Z" opacity=".82"/>
    <path d="M79.3 129.6C86.7 121.8 97.3 118 112 118h56c14.7 0 25.3 3.8 32.7 11.6 6.9 7.2 10.3 17.3 10.3 30v22.4c0 3.1-2.5 5.6-5.6 5.6H74.6c-3.1 0-5.6-2.5-5.6-5.6V160c0-12.7 3.4-22.8 10.3-30.4Z" opacity=".92"/>
    <path d="M70 140.1C70 125 82 113 97.1 113H98c5.5 0 10 4.5 10 10s-4.5 10-10 10h-.9c-2 0-3.6 1.6-3.6 3.6v3.7c0 6.2-5 11.2-11.2 11.2-6.2 0-11.3-5-11.3-11.2v-.4Z" opacity=".82"/>
    <path d="M222 140.1c0-15.1-12-27.1-27.1-27.1H194c-5.5 0-10 4.5-10 10s4.5 10 10 10h.9c2 0 3.6 1.6 3.6 3.6v3.7c0 6.2 5 11.2 11.2 11.2 6.2 0 11.3-5 11.3-11.2v-.4Z" opacity=".82"/>
  </g>
</svg>
